<svg height="64" viewBox="0 0 64 64" width="64" xmlns="http://www.w3.org/2000/svg"><path d="M55.736 13.636l-4.368-4.362c-.45-.45-1.044-.677-1.636-.677-.592 0-1.184.225-1.635.676l-3.494 3.484 7.64 7.626 3.493-3.483c.903-.902.903-2.365 0-3.264zM21.922 35.396l7.64 7.627 21.045-21.006-7.64-7.627M20.273 37.028l-1.63 9.252 9.27-1.626"/><path d="M41.393 50.403H12.587V21.597h20.33l5.01-5H10.82c-1.78 0-3.234 1.455-3.234 3.234v32.34c0 1.78 1.455 3.234 3.234 3.234h32.34c1.778 0 3.233-1.455 3.233-3.234V29.05l-5 4.99v16.363z"/></svg>