<?xml version="1.0" ?><svg version="1.1" height="24px" viewBox="0 0 24 24" width="24px" xml:space="preserve" xmlns="http://www.w3.org/2000/svg" xmlns:xlink="http://www.w3.org/1999/xlink">
  <path d="M4.061,15.445c1.375,0,2.494-1.119,2.494-2.494c0-1.375-1.119-2.493-2.494-2.493c-1.375,0-2.493,1.118-2.493,2.493  C1.567,14.326,2.686,15.445,4.061,15.445z M4.061,11.402c0.854,0,1.55,0.695,1.55,1.549c0,0.855-0.695,1.549-1.55,1.549  s-1.549-0.694-1.549-1.549C2.511,12.098,3.206,11.402,4.061,11.402z"/><path d="M10.597,7.447c0-1.375-1.118-2.493-2.493-2.493S5.61,6.073,5.61,7.447c0,1.375,1.119,2.494,2.494,2.494  S10.597,8.822,10.597,7.447z M8.104,8.997c-0.854,0-1.55-0.695-1.55-1.55c0-0.854,0.695-1.549,1.55-1.549s1.549,0.695,1.549,1.549  C9.653,8.302,8.958,8.997,8.104,8.997z"/><path d="M18.504,7.447c0-1.375-1.119-2.493-2.494-2.493c-1.376,0-2.493,1.118-2.493,2.493c0,1.375,1.117,2.494,2.493,2.494  C17.385,9.941,18.504,8.822,18.504,7.447z M16.01,8.997c-0.854,0-1.549-0.695-1.549-1.55c0-0.854,0.695-1.549,1.549-1.549  c0.855,0,1.55,0.695,1.55,1.549C17.56,8.302,16.865,8.997,16.01,8.997z"/><path d="M5.536,15.834C5.535,15.834,5.535,15.834,5.536,15.834l-2.969-0.002c-0.776,0-2.088,0.459-2.088,2.172v2.198  c0,0.26,0.211,0.472,0.472,0.472h6.22c0.261,0,0.472-0.212,0.472-0.472v-2.198C7.643,16.291,6.331,15.834,5.536,15.834z   M6.699,19.729H1.422v-1.726c0-1.107,0.838-1.2,1.165-1.226l2.968-0.002c0.344,0,1.144,0.12,1.144,1.228V19.729z"/><path d="M9.473,12.952c0,1.375,1.119,2.494,2.493,2.494c1.376,0,2.495-1.119,2.495-2.494c0-1.375-1.119-2.493-2.495-2.493  C10.591,10.458,9.473,11.577,9.473,12.952z M11.966,11.402c0.856,0,1.551,0.695,1.551,1.549c0,0.855-0.695,1.549-1.551,1.549  c-0.854,0-1.549-0.694-1.549-1.549C10.417,12.098,11.112,11.402,11.966,11.402z"/><path d="M13.441,15.834L13.441,15.834l-2.969-0.002c-0.776,0-2.088,0.459-2.088,2.172v2.198c0,0.26,0.211,0.472,0.472,0.472h6.22  c0.262,0,0.473-0.212,0.473-0.472v-2.198C15.549,16.291,14.237,15.834,13.441,15.834z M14.604,19.729H9.328v-1.726  c0-1.105,0.798-1.226,1.163-1.226c0,0,0.001,0,0.001,0l2.97-0.002c0.343,0,1.143,0.12,1.143,1.228V19.729z"/><path d="M17.379,12.952c0,1.375,1.117,2.494,2.493,2.494c1.375,0,2.494-1.119,2.494-2.494c0-1.375-1.119-2.493-2.494-2.493  C18.496,10.458,17.379,11.577,17.379,12.952z M19.872,11.402c0.855,0,1.551,0.695,1.551,1.549c0,0.855-0.695,1.549-1.551,1.549  c-0.854,0-1.549-0.694-1.549-1.549C18.323,12.098,19.019,11.402,19.872,11.402z"/><path d="M21.347,15.834L21.347,15.834l-2.968-0.002c-0.776,0-2.089,0.459-2.089,2.172v2.198c0,0.26,0.212,0.472,0.472,0.472h6.221  c0.262,0,0.472-0.212,0.472-0.472v-2.198C23.454,16.291,22.144,15.834,21.347,15.834z M22.51,19.729h-5.276v-1.726  c0-1.105,0.799-1.226,1.163-1.226c0,0,0,0,0.002,0l2.969-0.002c0.343,0,1.143,0.12,1.143,1.228V19.729z"/>
</svg>
