<?xml version="1.0" ?><svg version="1.1" height="24px" viewBox="0 0 24 24" width="24px" xml:space="preserve" xmlns="http://www.w3.org/2000/svg" xmlns:xlink="http://www.w3.org/1999/xlink">
<g fill-rule="evenodd" id="miu" stroke="none" stroke-width="1"><g id="Artboard-1" transform="translate(-431.000000, -227.000000)"><g id="slice" transform="translate(215.000000, 119.000000)"/><path d="M451,244.354176 L451,232.4 L446.636364,228 L435.484848,228 C435.484848,228 435,228 435,228.488889 L435,249.510514 C435,250 435.484848,250 435.484848,250 L445.354176,250 C445.030181,249.714036 444.752867,249.376405 444.535129,249 L436,249 L436,229 L446,229 L446,232 C446,233 447,233 447,233 L450,233 L450,243.535129 C450.376405,243.752867 450.714036,244.030181 451,244.354176 L451,244.354176 Z M445.354176,244 L438,244 L438,243 L448,243 C446.985554,243 446.059309,243.377637 445.354176,244 L445.354176,244 Z M444,247 L438,247 L438,246 L444.126017,246 C444.043753,246.31962 444,246.6547 444,247 L444,247 Z M438,231 L438,232 L444,232 L444,231 L438,231 Z M438,234 L438,235 L448,235 L448,234 L438,234 Z M438,237 L438,238 L448,238 L448,237 L438,237 Z M438,240 L438,241 L448,241 L448,240 L438,240 Z M447,246 L447,244 L449,244 L449,246 L451,246 L451,248 L449,248 L449,250 L447,250 L447,248 L445,248 L445,246 L447,246 Z" id="editor-document-file-add-2-outline-stroke"/></g></g>
</svg>
