<svg height="25" viewBox="0 0 33 25" width="33" xmlns="http://www.w3.org/2000/svg"><path d="M18.006 6.538c0-1.973.662-3.554 1.988-4.743C21.32.605 22.97.01 24.94.01c2.518 0 4.49.8 5.917 2.397C32.285 4.004 33 6.13 33 8.782c0 2.72-.424 5.032-1.275 6.936-.85 1.903-1.87 3.483-3.06 4.743-1.19 1.26-2.43 2.245-3.724 2.96-1.29.713-2.412 1.238-3.364 1.58l-3.265-5.508c1.36-.545 2.518-1.412 3.47-2.602.952-1.19 1.495-2.465 1.632-3.824-1.36 0-2.602-.597-3.724-1.786-1.122-1.19-1.682-2.77-1.682-4.742zm-17.647 0c0-1.973.662-3.554 1.988-4.743C3.674.605 5.324.01 7.295.01c2.518 0 4.488.8 5.916 2.397 1.43 1.597 2.144 3.723 2.144 6.375 0 2.72-.424 5.032-1.275 6.936-.85 1.903-1.87 3.483-3.06 4.743-1.19 1.26-2.432 2.245-3.725 2.96-1.29.713-2.412 1.238-3.365 1.58L.666 19.492c1.36-.545 2.516-1.412 3.467-2.602.953-1.19 1.497-2.465 1.633-3.824-1.36 0-2.602-.597-3.723-1.786C.92 10.09.36 8.51.36 6.538z" /></svg>
