<svg xmlns="http://www.w3.org/2000/svg" class="svg-sprite">
    <symbol id="close" viewBox="0 0 100 100">
      <polygon points="77.6,21.1 49.6,49.2 21.5,21.1 19.6,23 47.6,51.1 19.6,79.2 21.5,81.1 49.6,53 77.6,81.1 79.6,79.2   51.5,51.1 79.6,23 "/>
    </symbol>
    <symbol id="config" viewBox="0 0 20 20">
       <g fill-rule="evenodd" id="Page-1" stroke="none" stroke-width="1"><g id="Core" transform="translate(-464.000000, -380.000000)"><g id="settings" transform="translate(464.000000, 380.000000)"><path d="M17.4,11 C17.4,10.7 17.5,10.4 17.5,10 C17.5,9.6 17.5,9.3 17.4,9 L19.5,7.3 C19.7,7.1 19.7,6.9 19.6,6.7 L17.6,3.2 C17.5,3.1 17.3,3 17,3.1 L14.5,4.1 C14,3.7 13.4,3.4 12.8,3.1 L12.4,0.5 C12.5,0.2 12.2,0 12,0 L8,0 C7.8,0 7.5,0.2 7.5,0.4 L7.1,3.1 C6.5,3.3 6,3.7 5.4,4.1 L3,3.1 C2.7,3 2.5,3.1 2.3,3.3 L0.3,6.8 C0.2,6.9 0.3,7.2 0.5,7.4 L2.6,9 C2.6,9.3 2.5,9.6 2.5,10 C2.5,10.4 2.5,10.7 2.6,11 L0.5,12.7 C0.3,12.9 0.3,13.1 0.4,13.3 L2.4,16.8 C2.5,16.9 2.7,17 3,16.9 L5.5,15.9 C6,16.3 6.6,16.6 7.2,16.9 L7.6,19.5 C7.6,19.7 7.8,19.9 8.1,19.9 L12.1,19.9 C12.3,19.9 12.6,19.7 12.6,19.5 L13,16.9 C13.6,16.6 14.2,16.3 14.7,15.9 L17.2,16.9 C17.4,17 17.7,16.9 17.8,16.7 L19.8,13.2 C19.9,13 19.9,12.7 19.7,12.6 L17.4,11 L17.4,11 Z M10,13.5 C8.1,13.5 6.5,11.9 6.5,10 C6.5,8.1 8.1,6.5 10,6.5 C11.9,6.5 13.5,8.1 13.5,10 C13.5,11.9 11.9,13.5 10,13.5 L10,13.5 Z" id="Shape"/></g></g></g>
    </symbol>
    <symbol id="dots" viewBox="0 0 128 128">
      <circle cx="64" cy="90.358" r="9.824"/><circle cx="99.25" cy="90.358" r="9.824"/><circle cx="28.75" cy="90.358" r="9.824"/>
    </symbol>
    <symbol id="edit" viewBox="0 0 64 64">
      <path d="M55.736 13.636l-4.368-4.362c-.45-.45-1.044-.677-1.636-.677-.592 0-1.184.225-1.635.676l-3.494 3.484 7.64 7.626 3.493-3.483c.903-.902.903-2.365 0-3.264zM21.922 35.396l7.64 7.627 21.045-21.006-7.64-7.627M20.273 37.028l-1.63 9.252 9.27-1.626"/><path d="M41.393 50.403H12.587V21.597h20.33l5.01-5H10.82c-1.78 0-3.234 1.455-3.234 3.234v32.34c0 1.78 1.455 3.234 3.234 3.234h32.34c1.778 0 3.233-1.455 3.233-3.234V29.05l-5 4.99v16.363z"/>
    </symbol>
    <symbol id="hot" viewBox="0 0 32 32">
       <g><g id="fire_1_"><path d="M22,9c-0.062,2.675-2.07,4.934-2.07,4.934C19.93,8.958,16,5,16,5s-0.053,2.962-2.043,5.948    C11.967,3.981,5.995,0,5.995,0C8.981,10.948,5,14.93,5,22.892C5,27.563,8.954,32,15,32c8.957,0,10.689-3.288,11.615-6.993    C27.891,19.906,25.98,13.976,22,9z M24.676,24.521C24.033,27.09,23.307,30,15,30c-5.008,0-8-3.614-8-7.108    c0-2.676,0.488-4.873,1.004-7.199c0.656-2.949,1.328-5.968,1.037-9.961c3.084,4.269,4.182,9.925,4.182,9.925    s2.871-4.031,3.643-5.903C17.457,10.957,18,15,18,19c0,0,2.656-2.188,4.648-5.478C24.746,17.284,25.502,21.217,24.676,24.521z"/><path d="M22.432,16.795l-0.85,0.985c-1.053,1.228-2.049,2.392-4.708,3.73c-0.381-1.142-0.727-2.399-0.727-4.323    v-1.709l-1.518,2.378c-0.512,0.811-0.936,1.483-1.568,2.376c-0.959-2.162-1.637-3.761-2.152-5.212l-0.479-1.35l-0.52,1.51    c-0.66,1.921-1.285,3.735-1.285,8.444c0,0.276,0.223,0.5,0.5,0.5c0.275,0,0.5-0.224,0.5-0.5c0-3.609,0.359-5.396,0.84-6.941    c0.52,1.322,1.176,2.825,2.037,4.75l0.352,0.784l0.508-0.692c0.83-1.13,1.324-1.89,1.865-2.743c0.158,1.479,0.523,2.54,0.885,3.59    l0.182,0.528l0.506-0.239c2.703-1.284,3.968-2.453,4.972-3.575c0.156,1.864-0.09,3.904-0.674,5.353    c-0.104,0.256,0.021,0.547,0.277,0.65c0.061,0.024,0.125,0.036,0.188,0.036c0.197,0,0.385-0.118,0.463-0.313    c0.775-1.924,1.008-4.664,0.592-6.982L22.432,16.795z"/></g></g> 
    </symbol>
    <symbol id="logout" viewBox="0 0 24 24">
       <g fill-rule="evenodd" id="miu" stroke="none" stroke-width="1"><g id="Artboard-1" transform="translate(-359.000000, -407.000000)"><path d="M360,408 L360,430 L375,430 L375,423.5 L374,423.5 L374,429 L361,429 L361,409 L374,409 L374,414.5 L375,414.5 L375,408 L360,408 Z M377.050253,415.464466 L377.757359,414.757359 L382,419 L377.757359,423.242641 L377.050253,422.535534 L380.087349,419.498437 L367.00472,419.498437 L367.00472,418.5 L380.085786,418.5 L377.050253,415.464466 Z" id="common-logout-signout-exit-outline-stroke"/></g></g> 
    </symbol>
    <symbol id="mail" viewBox="0 0 32 32">
       <g><path d="M4.274,8.663l10.034,7.948c0.455,0.36,1.082,0.52,1.691,0.49c0.609,0.029,1.236-0.13,1.691-0.49   l10.034-7.948c0.802-0.634,0.62-1.152-0.4-1.152H16H4.675C3.654,7.511,3.473,8.029,4.274,8.663z"/><path d="M28.448,10.76l-10.965,8.324c-0.41,0.309-0.947,0.459-1.483,0.453c-0.536,0.006-1.073-0.145-1.483-0.453   L3.552,10.76c-0.814-0.617-1.48-0.286-1.48,0.735v13.659c0,1.021,0.836,1.856,1.857,1.856H16h12.071   c1.021,0,1.857-0.836,1.857-1.856V11.495C29.929,10.474,29.263,10.143,28.448,10.76z"/></g> 
    </symbol>
    <symbol id="members" viewBox="0 0 24 24">
       <path d="M4.061,15.445c1.375,0,2.494-1.119,2.494-2.494c0-1.375-1.119-2.493-2.494-2.493c-1.375,0-2.493,1.118-2.493,2.493  C1.567,14.326,2.686,15.445,4.061,15.445z M4.061,11.402c0.854,0,1.55,0.695,1.55,1.549c0,0.855-0.695,1.549-1.55,1.549  s-1.549-0.694-1.549-1.549C2.511,12.098,3.206,11.402,4.061,11.402z"/><path d="M10.597,7.447c0-1.375-1.118-2.493-2.493-2.493S5.61,6.073,5.61,7.447c0,1.375,1.119,2.494,2.494,2.494  S10.597,8.822,10.597,7.447z M8.104,8.997c-0.854,0-1.55-0.695-1.55-1.55c0-0.854,0.695-1.549,1.55-1.549s1.549,0.695,1.549,1.549  C9.653,8.302,8.958,8.997,8.104,8.997z"/><path d="M18.504,7.447c0-1.375-1.119-2.493-2.494-2.493c-1.376,0-2.493,1.118-2.493,2.493c0,1.375,1.117,2.494,2.493,2.494  C17.385,9.941,18.504,8.822,18.504,7.447z M16.01,8.997c-0.854,0-1.549-0.695-1.549-1.55c0-0.854,0.695-1.549,1.549-1.549  c0.855,0,1.55,0.695,1.55,1.549C17.56,8.302,16.865,8.997,16.01,8.997z"/><path d="M5.536,15.834C5.535,15.834,5.535,15.834,5.536,15.834l-2.969-0.002c-0.776,0-2.088,0.459-2.088,2.172v2.198  c0,0.26,0.211,0.472,0.472,0.472h6.22c0.261,0,0.472-0.212,0.472-0.472v-2.198C7.643,16.291,6.331,15.834,5.536,15.834z   M6.699,19.729H1.422v-1.726c0-1.107,0.838-1.2,1.165-1.226l2.968-0.002c0.344,0,1.144,0.12,1.144,1.228V19.729z"/><path d="M9.473,12.952c0,1.375,1.119,2.494,2.493,2.494c1.376,0,2.495-1.119,2.495-2.494c0-1.375-1.119-2.493-2.495-2.493  C10.591,10.458,9.473,11.577,9.473,12.952z M11.966,11.402c0.856,0,1.551,0.695,1.551,1.549c0,0.855-0.695,1.549-1.551,1.549  c-0.854,0-1.549-0.694-1.549-1.549C10.417,12.098,11.112,11.402,11.966,11.402z"/><path d="M13.441,15.834L13.441,15.834l-2.969-0.002c-0.776,0-2.088,0.459-2.088,2.172v2.198c0,0.26,0.211,0.472,0.472,0.472h6.22  c0.262,0,0.473-0.212,0.473-0.472v-2.198C15.549,16.291,14.237,15.834,13.441,15.834z M14.604,19.729H9.328v-1.726  c0-1.105,0.798-1.226,1.163-1.226c0,0,0.001,0,0.001,0l2.97-0.002c0.343,0,1.143,0.12,1.143,1.228V19.729z"/><path d="M17.379,12.952c0,1.375,1.117,2.494,2.493,2.494c1.375,0,2.494-1.119,2.494-2.494c0-1.375-1.119-2.493-2.494-2.493  C18.496,10.458,17.379,11.577,17.379,12.952z M19.872,11.402c0.855,0,1.551,0.695,1.551,1.549c0,0.855-0.695,1.549-1.551,1.549  c-0.854,0-1.549-0.694-1.549-1.549C18.323,12.098,19.019,11.402,19.872,11.402z"/><path d="M21.347,15.834L21.347,15.834l-2.968-0.002c-0.776,0-2.089,0.459-2.089,2.172v2.198c0,0.26,0.212,0.472,0.472,0.472h6.221  c0.262,0,0.472-0.212,0.472-0.472v-2.198C23.454,16.291,22.144,15.834,21.347,15.834z M22.51,19.729h-5.276v-1.726  c0-1.105,0.799-1.226,1.163-1.226c0,0,0,0,0.002,0l2.969-0.002c0.343,0,1.143,0.12,1.143,1.228V19.729z"/> 
    </symbol>
    <symbol id="menu" viewBox="0 0 25 25">
      <title/><desc/><g fill-rule="evenodd" id="TabBar-Icons" stroke="none" stroke-width="1"><g id="Hamburger"><path d="M0,2 L25,2 L25,6 L0,6 L0,2 Z M0,10 L25,10 L25,14 L0,14 L0,10 Z M0,18 L25,18 L25,22 L0,22 L0,18 Z"/></g></g>
    </symbol>
    <symbol id="new" viewBox="0 0 24 24">
       <g fill-rule="evenodd" id="miu" stroke="none" stroke-width="1"><g id="Artboard-1" transform="translate(-431.000000, -227.000000)"><path d="M451,244.354176 L451,232.4 L446.636364,228 L435.484848,228 C435.484848,228 435,228 435,228.488889 L435,249.510514 C435,250 435.484848,250 435.484848,250 L445.354176,250 C445.030181,249.714036 444.752867,249.376405 444.535129,249 L436,249 L436,229 L446,229 L446,232 C446,233 447,233 447,233 L450,233 L450,243.535129 C450.376405,243.752867 450.714036,244.030181 451,244.354176 L451,244.354176 Z M445.354176,244 L438,244 L438,243 L448,243 C446.985554,243 446.059309,243.377637 445.354176,244 L445.354176,244 Z M444,247 L438,247 L438,246 L444.126017,246 C444.043753,246.31962 444,246.6547 444,247 L444,247 Z M438,231 L438,232 L444,232 L444,231 L438,231 Z M438,234 L438,235 L448,235 L448,234 L438,234 Z M438,237 L438,238 L448,238 L448,237 L438,237 Z M438,240 L438,241 L448,241 L448,240 L438,240 Z M447,246 L447,244 L449,244 L449,246 L451,246 L451,248 L449,248 L449,250 L447,250 L447,248 L445,248 L445,246 L447,246 Z" id="editor-document-file-add-2-outline-stroke"/></g></g> 
    </symbol>
    <symbol id="own" viewBox="0 0 512 512">
       <g><polygon points="429,328 429,277 480,277 480,235 429,235 429,184 387,184 387,235 336,235 336,277 387,277 387,328  "/><path d="M416,448c0,0,0-26.4-2.2-40.2c-1.8-10.9-16.9-25.3-81.1-48.9c-63.2-23.2-59.3-11.9-59.3-54.6c0-27.7,14.1-11.6,23.1-64.2   c3.5-20.7,6.3-6.9,13.9-40.1c4-17.4-2.7-18.7-1.9-27c0.8-8.3,1.6-15.7,3.1-32.7C313.4,119.3,293.9,64,224,64   c-69.9,0-89.4,55.3-87.5,76.4c1.5,16.9,2.3,24.4,3.1,32.7c0.8,8.3-5.9,9.6-1.9,27c7.6,33.1,10.4,19.3,13.9,40.1   c9,52.6,23.1,36.5,23.1,64.2c0,42.8,3.9,31.5-59.3,54.6c-64.2,23.5-79.4,38-81.1,48.9C32,421.6,32,448,32,448h192H416z"/></g> 
    </symbol>
    <symbol id="quote" viewBox="0 0 33 25">
      <path d="M18.006 6.538c0-1.973.662-3.554 1.988-4.743C21.32.605 22.97.01 24.94.01c2.518 0 4.49.8 5.917 2.397C32.285 4.004 33 6.13 33 8.782c0 2.72-.424 5.032-1.275 6.936-.85 1.903-1.87 3.483-3.06 4.743-1.19 1.26-2.43 2.245-3.724 2.96-1.29.713-2.412 1.238-3.364 1.58l-3.265-5.508c1.36-.545 2.518-1.412 3.47-2.602.952-1.19 1.495-2.465 1.632-3.824-1.36 0-2.602-.597-3.724-1.786-1.122-1.19-1.682-2.77-1.682-4.742zm-17.647 0c0-1.973.662-3.554 1.988-4.743C3.674.605 5.324.01 7.295.01c2.518 0 4.488.8 5.916 2.397 1.43 1.597 2.144 3.723 2.144 6.375 0 2.72-.424 5.032-1.275 6.936-.85 1.903-1.87 3.483-3.06 4.743-1.19 1.26-2.432 2.245-3.725 2.96-1.29.713-2.412 1.238-3.365 1.58L.666 19.492c1.36-.545 2.516-1.412 3.467-2.602.953-1.19 1.497-2.465 1.633-3.824-1.36 0-2.602-.597-3.723-1.786C.92 10.09.36 8.51.36 6.538z"/>
    </symbol>
    <symbol id="start" viewBox="0 0 24 24">
      <g id="icons"><g id="exit2"><path d="M12,10c1.1,0,2-0.9,2-2V4c0-1.1-0.9-2-2-2s-2,0.9-2,2v4C10,9.1,10.9,10,12,10z"/><path d="M19.1,4.9L19.1,4.9c-0.3-0.3-0.6-0.4-1.1-0.4c-0.8,0-1.5,0.7-1.5,1.5c0,0.4,0.2,0.8,0.4,1.1l0,0c0,0,0,0,0,0c0,0,0,0,0,0    c1.3,1.3,2,3,2,4.9c0,3.9-3.1,7-7,7s-7-3.1-7-7c0-1.9,0.8-3.7,2.1-4.9l0,0C7.3,6.8,7.5,6.4,7.5,6c0-0.8-0.7-1.5-1.5-1.5    c-0.4,0-0.8,0.2-1.1,0.4l0,0C3.1,6.7,2,9.2,2,12c0,5.5,4.5,10,10,10s10-4.5,10-10C22,9.2,20.9,6.7,19.1,4.9z"/></g></g>
    </symbol>
    <symbol id="team" viewBox="-0.6 -1 27 31">
       <path clip-rule="evenodd" d="M13.1,29.8L13.1,29.8c-14.8-3.2-13-25-13-25  C7.9,5.7,12.4,0.8,13,0.1V0c0,0,0,0,0,0c0,0,0,0,0,0v0.1c0.6,0.7,5.2,5.6,12.9,4.7C26,4.8,27.9,26.6,13.1,29.8z M23.3,6.5  c-6.2,0.7-9.8-3-10.2-3.6V2.8c0,0,0,0,0,0c0,0,0,0,0,0v0.1C12.5,3.5,8.9,7.2,2.8,6.5c0,0-1.4,18.2,10.3,20.7h0  C24.8,24.7,23.3,6.5,23.3,6.5z M13.1,25.3L13.1,25.3c-0.3-0.1-0.5-0.1-0.7-0.2l8.8-9.7C20.2,19.5,18.1,24.2,13.1,25.3z M8.6,22.9  l13-14.1c0,0.7,0,1.8-0.1,3.1L10.4,24.2C9.7,23.9,9.1,23.4,8.6,22.9z M4.5,8.1c5.1,0.6,8.1-2.5,8.5-3V5c0,0,0,0,0,0c0,0,0,0,0,0v0.1  c0.3,0.4,2.6,2.8,6.5,3.1L7.3,21.3C3.9,16.1,4.5,8.1,4.5,8.1z" fill-rule="evenodd"/> 
    </symbol>
    <symbol id="unread" viewBox="0 0 32 32">
       <g><g><path d="M16.333,13.759L16.333,13.759c-0.006-0.001-0.012-0.001-0.018-0.001c-0.006,0-0.012,0-0.018,0v0.001    c-1.21,0.03-2.183,1.02-2.183,2.237s0.972,2.208,2.183,2.237v0.002c0.006,0,0.012-0.002,0.018-0.002    c0.005,0,0.011,0.002,0.018,0.002v-0.002c1.219-0.029,2.183-1.02,2.183-2.237S17.552,13.789,16.333,13.759z"/><path d="M29.586,14.186c-2.76-2.246-7.407-5.51-13.253-5.621v0c-0.006,0-0.012,0-0.018,0c-0.006,0-0.012,0-0.018,0    v0C10.453,8.676,5.801,11.94,3.041,14.186c-0.132,0.107-1.036,0.8-1.051,1.686c-0.011,0.624,0.28,1.085,0.699,1.471    c2.255,2.181,7.176,6.059,13.609,6.087v0.002c0.006,0,0.012,0,0.018,0c0.005,0,0.011,0,0.018,0v-0.002    c6.445-0.028,11.351-3.906,13.607-6.087c0.419-0.386,0.709-0.847,0.697-1.471C30.621,14.986,29.719,14.293,29.586,14.186z     M16.315,21.752c-3.162-0.021-5.719-2.59-5.719-5.756s2.557-5.735,5.719-5.755c3.17,0.02,5.718,2.589,5.718,5.755    S19.485,21.73,16.315,21.752z"/></g></g> 
    </symbol>
    <symbol id="user" viewBox="0 0 16 16">
       <g><g transform="translate(-96.000000, 0.000000)"><path d="M103,8.73468778 C102.400262,8.38972905 102,7.74300738 102,7.00208688 L102,4.99791312 C102,3.89826062 102.895431,3 104,3 C105.11227,3 106,3.89449617 106,4.99791312 L106,7.00208688 C106,7.73907437 105.597801,8.38560296 105,8.73189155 L105,10 L106.5,10 C107.400556,10 107.895612,10.4055009 107.985167,11.2165026 C107.111058,12.3426679 105.719917,12.999965 104,13 C102.280157,13 100.888965,12.3426978 100.014833,11.2165026 C100.104388,10.4055009 100.599444,10 101.5,10 L103,10 Z M104,14 C107.313709,14 110,11.3137087 110,8 C110,4.68629134 107.313709,2 104,2 C100.686291,2 98,4.68629134 98,8 C98,11.3137087 100.686291,14 104,14 Z M104,16 C99.5817218,16 96,12.4182782 96,8 C96,3.58172178 99.5817218,0 104,0 C108.418278,0 112,3.58172178 112,8 C112,12.4182782 108.418278,16 104,16 Z M104,16"/></g></g> 
    </symbol></svg>